<svg fill="currentColor" xmlns="http://www.w3.org/2000/svg" viewBox="0 0 1139.81 330.89">
    <g id="almeydaLogo" data-name="anderson almeyda">
        <polygon id="triangulo_punta" points="7.06 218.66 37.81 218.66 133.9 52.22 230.16 218.93 259.95 218.66 133.71 0 7.06 218.66"/>
        <polygon id="triangulo_cuerpo" points="89.14 270.19 133.71 192.99 178.28 270.19 89.14 270.19"/>
        <polygon id="triangulo_interior" points="0 231.59 22.29 270.19 66.85 270.19 133.83 154.19 200.56 270.19 245.13 270.19 267.42 231.59 222.85 231.59 133.71 77.2 44.57 231.59 0 231.59"/>
    </g>
    <path id="l" d="M322.28,270.11H284.6V77.89h37.68Z"/>
    <path id="m" d="M477.88,270.11H440.2V189.44q0-14.94-5-22.42t-15.75-7.48q-14.46,0-21,10.63t-6.55,35v65H354.22V132H383l5.06,17.66h2.1a38.37,38.37,0,0,1,16.06-14.89,52.17,52.17,0,0,1,24.09-5.37q31,0,42,20.26h3.34A37.28,37.28,0,0,1,492,134.71a54.58,54.58,0,0,1,24.39-5.31q23.48,0,35.52,12t12,38.6v90.06H526.18V189.44q0-14.94-5-22.42t-15.75-7.48q-13.83,0-20.69,9.89t-6.86,31.37Z"/>
    <path id="e" d="M657.57,272.58q-33.35,0-52.13-18.41T586.66,202q0-34.71,17.36-53.68t48-19q29.28,0,45.59,16.68t16.3,46.08v18.28H624.83q.63,16.06,9.52,25.08t24.95,9a103.58,103.58,0,0,0,23.6-2.6,118,118,0,0,0,23.22-8.28v29.16A88.89,88.89,0,0,1,685,270.17,133,133,0,0,1,657.57,272.58Zm-5.31-116.37q-12,0-18.78,7.6t-7.78,21.55h52.87q-.24-14-7.29-21.55T652.26,156.21Z"/>
    <path id="y" d="M717.19,132h41.26l26.06,77.7a107.2,107.2,0,0,1,4.57,24h.74a105.81,105.81,0,0,1,5.32-24L820.71,132H861.1L802.67,287.77q-8,21.62-22.91,32.37T745,330.89a87.45,87.45,0,0,1-19.15-2.1v-29.9a64.45,64.45,0,0,0,14.83,1.61,26.77,26.77,0,0,0,17.48-6.12q7.47-6.11,11.67-18.47l2.23-6.79Z"/>
    <path id="d" d="M917,272.58q-24.33,0-38.23-18.9t-13.9-52.38q0-34,14.14-52.94t39-19q26.07,0,39.78,20.26H959a154.4,154.4,0,0,1-2.84-27.55V77.89H994V270.11h-28.9l-7.29-17.91h-1.61Q943.33,272.57,917,272.58Zm13.22-30q14.46,0,21.19-8.4t7.35-28.54v-4.08q0-22.23-6.86-31.87T929.61,160Q917,160,910,170.72t-7,31.07q0,20.39,7,30.58T930.23,242.56Z"/>
    <path id="a" d="M1113.5,270.11l-7.29-18.78h-1q-9.51,12-19.58,16.62t-26.25,4.63q-19.89,0-31.31-11.37t-11.43-32.36q0-22,15.38-32.43t46.39-11.55l24-.74v-6.06q0-21-21.49-21-16.56,0-38.92,10l-12.47-25.45q23.84-12.48,52.87-12.48,27.8,0,42.62,12.11t14.82,36.81v92Zm-11.12-64-14.57.49q-16.44.49-24.46,5.93t-8,16.55q0,15.94,18.28,15.94,13.1,0,20.94-7.54t7.84-20Z"/>
</svg>